<?xml version="1.0" encoding="iso-8859-1"?>
<!-- Generator: Adobe Illustrator 19.0.0, SVG Export Plug-In . SVG Version: 6.00 Build 0)  -->
<svg version="1.1" id="Layer_1" xmlns="http://www.w3.org/2000/svg" xmlns:xlink="http://www.w3.org/1999/xlink" x="0px" y="0px"
	 viewBox="0 0 392.598 392.598" style="enable-background:new 0 0 392.598 392.598;" xml:space="preserve">
<path style="fill:#FFC10D;" d="M214.949,191.16l37.689-23.337c2.263-1.422,5.042-1.939,7.628-1.487
	c6.465,1.164,12.994,1.681,19.459,1.681c50.23,0,91.022-32.84,91.022-73.18s-40.792-73.115-90.958-73.115
	s-91.022,32.84-91.022,73.18c0,19.523,9.568,38.012,27.022,51.911c3.038,2.392,4.59,6.206,4.008,10.02L214.949,191.16z"/>
<g>
	<path style="fill:#194F82;" d="M94.319,251.281c32.582,0,59.216-26.57,59.216-59.216s-26.57-59.152-59.216-59.152
		s-59.216,26.57-59.216,59.216S61.737,251.281,94.319,251.281z M94.319,154.699c20.622,0,37.43,16.743,37.43,37.43
		s-16.743,37.43-37.43,37.43s-37.43-16.743-37.43-37.43C57.018,171.442,73.762,154.699,94.319,154.699z"/>
	<path style="fill:#194F82;" d="M127.935,268.994c-4.008,0-7.628,2.133-9.568,5.689l-24.048,44.218l-23.984-44.218
		c-1.939-3.491-5.56-5.689-9.568-5.689C27.216,268.994,0,296.275,0,329.762v51.911c0,6.012,4.848,10.925,10.925,10.925h166.853
		c6.012,0,10.925-4.848,10.925-10.925v-51.911C188.703,296.275,161.422,268.994,127.935,268.994z M166.917,370.747H21.851v-41.051
		c0-19.329,14.158-35.362,32.711-38.4l30.19,55.725c4.267,6.982,14.481,8.21,19.135,0l30.19-55.725
		c18.554,3.038,32.711,19.071,32.711,38.4v41.051H166.917z"/>
</g>
<path style="fill:#FFFFFF;" d="M94.319,154.699c-20.622,0-37.43,16.743-37.43,37.43s16.743,37.43,37.43,37.43
	s37.43-16.743,37.43-37.43S114.941,154.699,94.319,154.699z"/>
<path style="fill:#56ACE0;" d="M21.851,370.747h144.937v-41.051c0-19.329-14.158-35.362-32.711-38.4l-30.19,55.661
	c-4.719,8.21-14.933,6.982-19.135,0l-30.19-55.661c-18.554,3.038-32.711,19.071-32.711,38.4V370.747z"/>
<g>
	<path style="fill:#194F82;" d="M249.471,54.562c-2.392,5.495,0.065,11.96,5.56,14.352c5.495,2.392,11.96-0.065,14.352-5.56
		c4.849-9.632,17.067-7.111,19.459,1.616c1.293,5.689-1.875,10.02-5.495,11.83c-9.374,4.59-15.386,14.675-15.386,25.665
		c0,0-0.84,13.317,10.925,13.317s10.925-13.317,10.925-13.317c0-2.715,1.293-5.107,3.168-6.012
		c13.511-6.594,20.558-21.463,17.131-36.331C303.063,30.966,263.887,25.341,249.471,54.562z"/>
	<path style="fill:#194F82;" d="M278.885,125.285c-6.012,0-10.925,4.848-10.925,10.925v7.37c0,6.012,4.848,10.925,10.925,10.925
		c6.012,0,10.925-4.848,10.925-10.925v-7.434C289.745,130.133,284.897,125.285,278.885,125.285z"/>
	<path style="fill:#194F82;" d="M279.725,0c-62.19,0-112.873,42.602-112.873,94.966c0,24.436,10.731,47.192,30.448,64.84
		l-7.24,51.329c-1.422,8.339,7.37,16.162,16.549,10.796l54.044-33.358c6.335,0.905,12.735,1.422,19.071,1.422
		c62.19,0,112.873-42.602,112.873-94.966S341.98,0,279.725,0z M279.725,168.081c-6.465,0-12.994-0.517-19.459-1.681
		c-2.65-0.453-5.301,0.065-7.628,1.487l-37.689,23.337l4.784-34.327c0.517-3.814-1.034-7.628-4.008-10.02
		c-17.455-13.899-27.022-32.323-27.022-51.911c0-40.339,40.857-73.18,91.022-73.18s91.022,32.84,91.022,73.18
		C370.812,135.305,329.956,168.081,279.725,168.081z"/>
</g>
<g>
</g>
<g>
</g>
<g>
</g>
<g>
</g>
<g>
</g>
<g>
</g>
<g>
</g>
<g>
</g>
<g>
</g>
<g>
</g>
<g>
</g>
<g>
</g>
<g>
</g>
<g>
</g>
<g>
</g>
</svg>
