<svg height="512pt" viewBox="0 -24 512.00104 512" width="512pt" xmlns="http://www.w3.org/2000/svg"><path d="m403.683594 61.597656h-293.832032c-38.824218 0-70.292968 31.472656-70.292968 70.292969v293.238281h434.421875v-293.238281c0-38.820313-31.472657-70.292969-70.296875-70.292969zm0 0" fill="#efe1f9"/><path d="m39.558594 386.546875h434.421875v38.800781h-434.421875zm0 0" fill="#d7c6e5"/><path d="m128.636719 61.597656c-38.816407 0-70.285157 31.472656-70.285157 70.296875v293.238281h-18.023437v-293.238281c0-38.824219 31.472656-70.296875 70.296875-70.296875zm0 0" fill="#d7c6e5"/><path d="m392.914062 362.992188h-272.292968c-21.8125 0-39.492188-17.683594-39.492188-39.496094v-180.835938c0-21.8125 17.679688-39.492187 39.492188-39.492187h272.292968c21.8125 0 39.492188 17.679687 39.492188 39.492187v180.835938c0 21.8125-17.679688 39.496094-39.492188 39.496094zm0 0" fill="#c3edfc"/><path d="m392.914062 370.804688h-272.292968c-26.085938 0-47.304688-21.222657-47.304688-47.308594v-180.835938c0-26.082031 21.21875-47.304687 47.304688-47.304687h272.292968c26.085938 0 47.304688 21.222656 47.304688 47.304687v180.835938c0 26.085937-21.21875 47.308594-47.304688 47.308594zm-272.292968-259.824219c-17.46875 0-31.679688 14.214843-31.679688 31.679687v180.835938c0 17.46875 14.210938 31.679687 31.679688 31.679687h272.292968c17.46875 0 31.679688-14.210937 31.679688-31.679687v-180.835938c0-17.464844-14.210938-31.679687-31.679688-31.679687zm0 0" fill="#d7c6e5"/><path d="m481.832031 404.5625h-450.128906c-16.660156 0-30.167969 13.503906-30.167969 30.167969 0 16.660156 13.507813 30.164062 30.167969 30.164062h450.128906c16.664063 0 30.167969-13.503906 30.167969-30.164062 0-16.664063-13.507812-30.167969-30.167969-30.167969zm0 0" fill="#efe1f9"/><path d="m508.050781 449.65625c-5.199219 9.105469-14.992187 15.238281-26.222656 15.238281h-450.125c-8.335937 0-15.875-3.375-21.335937-8.832031-5.457032-5.460938-8.832032-13-8.832032-21.335938 0-16.65625 13.5-30.160156 30.167969-30.160156h12.574219c-2.519532 4.398438-3.949219 9.492188-3.949219 14.917969 0 8.335937 3.375 15.878906 8.835937 21.335937 5.457032 5.460938 13 8.835938 21.335938 8.835938zm0 0" fill="#d7c6e5"/><path d="m312.863281 434.730469h-112.1875c-16.664062 0-30.167969-13.507813-30.167969-30.167969h172.519532c0 16.660156-13.503906 30.167969-30.164063 30.167969zm0 0" fill="#d7c6e5"/><path d="m476.171875 0h-114.449219c-18.933594 0-34.285156 15.351562-34.285156 34.285156v79.011719c0 18.933594 15.351562 34.28125 34.285156 34.28125h114.449219c18.933594 0 34.285156-15.347656 34.285156-34.28125v-79.011719c0-18.933594-15.351562-34.285156-34.285156-34.285156zm0 0" fill="#ff557e"/><path d="m423.394531 206.820312h-89.949219c-15.882812 0-28.757812 12.875-28.757812 28.757813v71.355469c0 15.882812 12.875 28.757812 28.757812 28.757812h89.949219c15.882813 0 28.757813-12.875 28.757813-28.757812v-71.355469c0-15.882813-12.875-28.757813-28.757813-28.757813zm0 0" fill="#80e29d"/><path d="m215.25 130.070312h-169.574219c-25.226562 0-45.675781 20.449219-45.675781 45.675782v92.378906c0 25.226562 20.449219 45.675781 45.675781 45.675781h169.574219c25.226562 0 45.675781-20.449219 45.675781-45.675781v-92.378906c0-25.226563-20.449219-45.675782-45.675781-45.675782zm0 0" fill="#617ed1"/><path d="m225.558594 177.265625h-17.636719c-4.316406 0-7.8125-3.5-7.8125-7.816406 0-4.3125 3.496094-7.8125 7.8125-7.8125h17.636719c4.3125 0 7.8125 3.5 7.8125 7.8125 0 4.316406-3.5 7.816406-7.8125 7.816406zm0 0" fill="#ffe76e"/><path d="m179.859375 177.265625h-70.671875c-4.3125 0-7.8125-3.5-7.8125-7.816406 0-4.3125 3.5-7.8125 7.8125-7.8125h70.671875c4.316406 0 7.8125 3.5 7.8125 7.8125 0 4.316406-3.496094 7.816406-7.8125 7.816406zm0 0" fill="#ffe76e"/><path d="m81.128906 177.265625h-45.761718c-4.3125 0-7.8125-3.5-7.8125-7.816406 0-4.3125 3.5-7.8125 7.8125-7.8125h45.761718c4.316406 0 7.8125 3.5 7.8125 7.8125 0 4.316406-3.496094 7.816406-7.8125 7.816406zm0 0" fill="#ff557e"/><path d="m225.558594 282.230469h-86.15625c-4.316406 0-7.8125-3.496094-7.8125-7.8125 0-4.3125 3.496094-7.8125 7.8125-7.8125h86.15625c4.3125 0 7.8125 3.5 7.8125 7.8125 0 4.316406-3.5 7.8125-7.8125 7.8125zm0 0" fill="#ffe76e"/><path d="m108.148438 282.230469h-25.90625c-4.316407 0-7.8125-3.496094-7.8125-7.8125 0-4.3125 3.496093-7.8125 7.8125-7.8125h25.90625c4.316406 0 7.816406 3.5 7.816406 7.8125 0 4.316406-3.5 7.8125-7.816406 7.8125zm0 0" fill="#ffe76e"/><path d="m50.988281 282.230469h-15.621093c-4.3125 0-7.8125-3.496094-7.8125-7.8125 0-4.3125 3.5-7.8125 7.8125-7.8125h15.621093c4.316407 0 7.8125 3.5 7.8125 7.8125 0 4.316406-3.496093 7.8125-7.8125 7.8125zm0 0" fill="#ff557e"/><path d="m225.558594 247.242188h-34.191406c-4.3125 0-7.8125-3.496094-7.8125-7.8125 0-4.316407 3.5-7.8125 7.8125-7.8125h34.191406c4.3125 0 7.8125 3.496093 7.8125 7.8125 0 4.316406-3.5 7.8125-7.8125 7.8125zm0 0" fill="#ffe76e"/><path d="m160.113281 247.242188h-124.746093c-4.3125 0-7.8125-3.496094-7.8125-7.8125 0-4.316407 3.5-7.8125 7.8125-7.8125h124.746093c4.316407 0 7.816407 3.496093 7.816407 7.8125 0 4.316406-3.5 7.8125-7.816407 7.8125zm0 0" fill="#ff557e"/><path d="m225.558594 212.253906h-135.953125c-4.316407 0-7.816407-3.5-7.816407-7.8125 0-4.316406 3.5-7.8125 7.816407-7.8125h135.953125c4.3125 0 7.8125 3.496094 7.8125 7.8125 0 4.3125-3.5 7.8125-7.8125 7.8125zm0 0" fill="#ffe76e"/><path d="m58.351562 212.253906h-22.984374c-4.3125 0-7.8125-3.5-7.8125-7.8125 0-4.316406 3.5-7.8125 7.8125-7.8125h22.984374c4.316407 0 7.8125 3.496094 7.8125 7.8125 0 4.3125-3.496093 7.8125-7.8125 7.8125zm0 0" fill="#ff557e"/><g fill="#fff"><path d="m447.515625 115.40625c-2.003906 0-4-.761719-5.527344-2.285156-3.050781-3.054688-3.050781-8 0-11.050782l28.28125-28.28125-28.28125-28.277343c-3.050781-3.054688-3.050781-8 0-11.050781 3.054688-3.050782 8-3.050782 11.050781 0l33.804688 33.804687c1.464844 1.464844 2.289062 3.449219 2.289062 5.523437 0 2.070313-.824218 4.058594-2.289062 5.523438l-33.804688 33.804688c-1.527343 1.527343-3.527343 2.289062-5.523437 2.289062zm0 0"/><path d="m390.382812 115.40625c-2 0-4-.761719-5.527343-2.285156l-33.804688-33.808594c-1.464843-1.464844-2.289062-3.449219-2.289062-5.523438 0-2.070312.824219-4.058593 2.289062-5.523437l33.804688-33.804687c3.054687-3.050782 8-3.050782 11.050781 0 3.050781 3.050781 3.050781 8 0 11.050781l-28.28125 28.277343 28.28125 28.28125c3.050781 3.050782 3.050781 7.996094 0 11.050782-1.527344 1.523437-3.527344 2.285156-5.523438 2.285156zm0 0"/><path d="m408.105469 132.988281c-.535157 0-1.078125-.054687-1.625-.171875-4.222657-.890625-6.921875-5.035156-6.027344-9.257812l21.699219-102.765625c.890625-4.222657 5.042968-6.921875 9.261718-6.03125 4.222657.890625 6.921876 5.035156 6.027344 9.257812l-21.699218 102.769531c-.777344 3.675782-4.023438 6.199219-7.636719 6.199219zm0 0"/></g><path d="m376.296875 315.445312c-2.257813 0-4.421875-.980468-5.914063-2.710937l-25.996093-30.140625c-2.816407-3.269531-2.453125-8.203125.8125-11.019531 3.269531-2.820313 8.199219-2.453125 11.019531.8125l18.625 21.59375 31.996094-58.683594c2.066406-3.789063 6.8125-5.1875 10.601562-3.121094 3.789063 2.066407 5.183594 6.8125 3.117188 10.601563l-37.398438 68.59375c-1.230468 2.25-3.484375 3.753906-6.03125 4.027344-.277344.03125-.554687.046874-.832031.046874zm0 0" fill="#304c56"/></svg>